<svg width="284" height="267" viewBox="0 0 284 267" fill="none" xmlns="http://www.w3.org/2000/svg">
<path d="M46 241.5V16.5C46 7.9396 52.9396 1.00002 61.5 1.00002C70.0604 1.00002 77 7.9396 77 16.5V120V241.5C77 250.06 70.0604 257 61.5 257C52.9396 257 46 250.06 46 241.5Z" fill="#F3C213" stroke="black"/>
<path d="M193.5 85C193.5 113.457 171.101 136.5 143.5 136.5C115.899 136.5 93.5 113.457 93.5 85C93.5 56.5434 115.899 33.5 143.5 33.5C171.101 33.5 193.5 56.5434 193.5 85Z" fill="#F3C213" style="mix-blend-mode:darken"/>
<path d="M193.5 85C193.5 113.457 171.101 136.5 143.5 136.5C115.899 136.5 93.5 113.457 93.5 85C93.5 56.5434 115.899 33.5 143.5 33.5C171.101 33.5 193.5 56.5434 193.5 85Z" stroke="black"/>
<circle cx="188.5" cy="171.5" r="94.7539" fill="#F3C213" stroke="black" stroke-width="1.49219"/>
<path d="M93 241.5V16.5C93 7.93959 99.9396 1 108.5 1C117.06 1 124 7.93959 124 16.5V120V241.5C124 250.06 117.06 257 108.5 257C99.9396 257 93 250.06 93 241.5Z" fill="#F3C213" stroke="black"/>
<path d="M111 205H14C6.8203 205 1 199.18 1 192C1 184.82 6.8203 179 14 179H111C118.18 179 124 184.82 124 192C124 199.18 118.18 205 111 205Z" fill="#F3C213" stroke="black"/>
<path d="M109 91H16C7.71573 91 1 84.2843 1 76C1 67.7157 7.71573 61 16 61H109C117.284 61 124 67.7157 124 76C124 84.2843 117.284 91 109 91Z" fill="#F3C213" stroke="black"/>
<circle cx="150.5" cy="59.5" r="16" fill="white" stroke="black"/>
</svg>

